<?xml version="1.0" encoding="UTF-8" standalone="no"?>
<!DOCTYPE svg PUBLIC "-//W3C//DTD SVG 1.1//EN"
 "http://www.w3.org/Graphics/SVG/1.1/DTD/svg11.dtd">
<!-- Generated by graphviz version 2.44.1 (20200629.0846)
 -->
<!-- Title: G Pages: 1 -->
<svg width="262pt" height="269pt"
 viewBox="0.00 0.00 262.50 268.99" xmlns="http://www.w3.org/2000/svg" xmlns:xlink="http://www.w3.org/1999/xlink">
<g id="graph0" class="graph" transform="scale(1 1) rotate(0) translate(4 264.99)">
<title>G</title>
<polygon fill="white" stroke="transparent" points="-4,4 -4,-264.99 258.5,-264.99 258.5,4 -4,4"/>
<!-- 8 -->
<g id="node1" class="node">
<title>8</title>
<ellipse fill="none" stroke="black" cx="152" cy="-242.99" rx="18" ry="18"/>
<text text-anchor="middle" x="152" y="-239.29" font-family="Times New Roman,serif" font-size="14.00">8</text>
</g>
<!-- 4 -->
<g id="node2" class="node">
<title>4</title>
<ellipse fill="none" stroke="black" cx="125" cy="-169.49" rx="18" ry="18"/>
<text text-anchor="middle" x="125" y="-165.79" font-family="Times New Roman,serif" font-size="14.00">4</text>
</g>
<!-- 8&#45;&gt;4 -->
<g id="edge1" class="edge">
<title>8&#45;&gt;4</title>
<path fill="none" stroke="black" d="M145.87,-225.77C142.56,-216.99 138.39,-205.95 134.65,-196.05"/>
<polygon fill="black" stroke="black" points="131.1,-186.65 138.85,-194.42 132.87,-191.33 134.64,-196.01 134.64,-196.01 134.64,-196.01 132.87,-191.33 130.43,-197.6 131.1,-186.65 131.1,-186.65"/>
</g>
<!-- 10 -->
<g id="node9" class="node">
<title>10</title>
<ellipse fill="none" stroke="black" cx="180" cy="-169.49" rx="19.5" ry="19.5"/>
<text text-anchor="middle" x="180" y="-165.79" font-family="Times New Roman,serif" font-size="14.00">10</text>
</g>
<!-- 8&#45;&gt;10 -->
<g id="edge8" class="edge">
<title>8&#45;&gt;10</title>
<path fill="none" stroke="black" d="M158.35,-225.77C161.63,-217.39 165.72,-206.94 169.46,-197.4"/>
<polygon fill="black" stroke="black" points="173.18,-187.9 173.73,-198.85 171.36,-192.56 169.54,-197.21 169.54,-197.21 169.54,-197.21 171.36,-192.56 165.35,-195.57 173.18,-187.9 173.18,-187.9"/>
</g>
<!-- 2 -->
<g id="node3" class="node">
<title>2</title>
<ellipse fill="none" stroke="black" cx="72" cy="-94.49" rx="18" ry="18"/>
<text text-anchor="middle" x="72" y="-90.79" font-family="Times New Roman,serif" font-size="14.00">2</text>
</g>
<!-- 4&#45;&gt;2 -->
<g id="edge2" class="edge">
<title>4&#45;&gt;2</title>
<path fill="none" stroke="black" d="M114.78,-154.42C107.23,-144.02 96.8,-129.65 88.12,-117.7"/>
<polygon fill="black" stroke="black" points="82.19,-109.53 91.7,-114.97 85.13,-113.57 88.06,-117.62 88.06,-117.62 88.06,-117.62 85.13,-113.57 84.42,-120.26 82.19,-109.53 82.19,-109.53"/>
</g>
<!-- 6 -->
<g id="node6" class="node">
<title>6</title>
<ellipse fill="none" stroke="black" cx="126" cy="-94.49" rx="18" ry="18"/>
<text text-anchor="middle" x="126" y="-90.79" font-family="Times New Roman,serif" font-size="14.00">6</text>
</g>
<!-- 4&#45;&gt;6 -->
<g id="edge5" class="edge">
<title>4&#45;&gt;6</title>
<path fill="none" stroke="black" d="M125.24,-151.19C125.35,-142.74 125.49,-132.36 125.63,-122.87"/>
<polygon fill="black" stroke="black" points="125.76,-112.67 130.13,-122.73 125.7,-117.67 125.63,-122.67 125.63,-122.67 125.63,-122.67 125.7,-117.67 121.13,-122.61 125.76,-112.67 125.76,-112.67"/>
</g>
<!-- 1 -->
<g id="node4" class="node">
<title>1</title>
<ellipse fill="none" stroke="black" cx="18" cy="-19.5" rx="18" ry="18"/>
<text text-anchor="middle" x="18" y="-15.8" font-family="Times New Roman,serif" font-size="14.00">1</text>
</g>
<!-- 2&#45;&gt;1 -->
<g id="edge3" class="edge">
<title>2&#45;&gt;1</title>
<path fill="none" stroke="black" d="M61.59,-79.42C53.89,-69.02 43.26,-54.65 34.43,-42.71"/>
<polygon fill="black" stroke="black" points="28.38,-34.53 37.94,-39.89 31.35,-38.55 34.33,-42.57 34.33,-42.57 34.33,-42.57 31.35,-38.55 30.71,-45.25 28.38,-34.53 28.38,-34.53"/>
</g>
<!-- 3 -->
<g id="node5" class="node">
<title>3</title>
<ellipse fill="none" stroke="black" cx="72" cy="-19.5" rx="18" ry="18"/>
<text text-anchor="middle" x="72" y="-15.8" font-family="Times New Roman,serif" font-size="14.00">3</text>
</g>
<!-- 2&#45;&gt;3 -->
<g id="edge4" class="edge">
<title>2&#45;&gt;3</title>
<path fill="none" stroke="black" d="M72,-76.2C72,-67.74 72,-57.37 72,-47.87"/>
<polygon fill="black" stroke="black" points="72,-37.67 76.5,-47.67 72,-42.67 72,-47.67 72,-47.67 72,-47.67 72,-42.67 67.5,-47.67 72,-37.67 72,-37.67"/>
</g>
<!-- 5 -->
<g id="node7" class="node">
<title>5</title>
<ellipse fill="none" stroke="black" cx="126" cy="-19.5" rx="18" ry="18"/>
<text text-anchor="middle" x="126" y="-15.8" font-family="Times New Roman,serif" font-size="14.00">5</text>
</g>
<!-- 6&#45;&gt;5 -->
<g id="edge6" class="edge">
<title>6&#45;&gt;5</title>
<path fill="none" stroke="black" d="M126,-76.2C126,-67.74 126,-57.37 126,-47.87"/>
<polygon fill="black" stroke="black" points="126,-37.67 130.5,-47.67 126,-42.67 126,-47.67 126,-47.67 126,-47.67 126,-42.67 121.5,-47.67 126,-37.67 126,-37.67"/>
</g>
<!-- 7 -->
<g id="node8" class="node">
<title>7</title>
<ellipse fill="none" stroke="black" cx="180" cy="-19.5" rx="18" ry="18"/>
<text text-anchor="middle" x="180" y="-15.8" font-family="Times New Roman,serif" font-size="14.00">7</text>
</g>
<!-- 6&#45;&gt;7 -->
<g id="edge7" class="edge">
<title>6&#45;&gt;7</title>
<path fill="none" stroke="black" d="M136.41,-79.42C144.11,-69.02 154.74,-54.65 163.57,-42.71"/>
<polygon fill="black" stroke="black" points="169.62,-34.53 167.29,-45.25 166.65,-38.55 163.67,-42.57 163.67,-42.57 163.67,-42.57 166.65,-38.55 160.06,-39.89 169.62,-34.53 169.62,-34.53"/>
</g>
<!-- 9 -->
<g id="node10" class="node">
<title>9</title>
<ellipse fill="none" stroke="black" cx="180" cy="-94.49" rx="18" ry="18"/>
<text text-anchor="middle" x="180" y="-90.79" font-family="Times New Roman,serif" font-size="14.00">9</text>
</g>
<!-- 10&#45;&gt;9 -->
<g id="edge9" class="edge">
<title>10&#45;&gt;9</title>
<path fill="none" stroke="black" d="M180,-149.69C180,-141.64 180,-132.08 180,-123.24"/>
<polygon fill="black" stroke="black" points="180,-112.98 184.5,-122.98 180,-117.98 180,-122.98 180,-122.98 180,-122.98 180,-117.98 175.5,-122.98 180,-112.98 180,-112.98"/>
</g>
<!-- 12 -->
<g id="node11" class="node">
<title>12</title>
<ellipse fill="none" stroke="black" cx="235" cy="-94.49" rx="19.5" ry="19.5"/>
<text text-anchor="middle" x="235" y="-90.79" font-family="Times New Roman,serif" font-size="14.00">12</text>
</g>
<!-- 10&#45;&gt;12 -->
<g id="edge10" class="edge">
<title>10&#45;&gt;12</title>
<path fill="none" stroke="black" d="M191.4,-153.37C198.92,-143.38 208.92,-130.11 217.45,-118.79"/>
<polygon fill="black" stroke="black" points="223.62,-110.6 221.19,-121.3 220.61,-114.59 217.6,-118.59 217.6,-118.59 217.6,-118.59 220.61,-114.59 214.01,-115.88 223.62,-110.6 223.62,-110.6"/>
</g>
<!-- 11 -->
<g id="node12" class="node">
<title>11</title>
<ellipse fill="none" stroke="black" cx="235" cy="-19.5" rx="19.5" ry="19.5"/>
<text text-anchor="middle" x="235" y="-15.8" font-family="Times New Roman,serif" font-size="14.00">11</text>
</g>
<!-- 12&#45;&gt;11 -->
<g id="edge11" class="edge">
<title>12&#45;&gt;11</title>
<path fill="none" stroke="black" d="M235,-74.7C235,-66.95 235,-57.8 235,-49.24"/>
<polygon fill="black" stroke="black" points="235,-39.23 239.5,-49.23 235,-44.23 235,-49.23 235,-49.23 235,-49.23 235,-44.23 230.5,-49.23 235,-39.23 235,-39.23"/>
</g>
</g>
</svg>
